<?xml version="1.0" standalone="no"?><!-- Generator: Gravit.io --><svg xmlns="http://www.w3.org/2000/svg" xmlns:xlink="http://www.w3.org/1999/xlink" style="isolation:isolate" viewBox="0 0 100 100" width="100" height="100"><g><path d=" M 0 0 L 100 0 L 100 100 L 0 100 L 0 0 Z " fill="none"/><path d=" M 87.5 8.333 L 12.5 8.333 C 7.917 8.333 4.167 12.083 4.167 16.667 L 4.167 66.667 C 4.167 71.25 7.917 75 12.5 75 L 41.667 75 L 41.667 83.333 L 33.333 83.333 L 33.333 91.667 L 66.667 91.667 L 66.667 83.333 L 58.333 83.333 L 58.333 75 L 87.5 75 C 92.083 75 95.833 71.25 95.833 66.667 L 95.833 16.667 C 95.833 12.083 92.083 8.333 87.5 8.333 Z  M 87.5 66.667 L 12.5 66.667 L 12.5 16.667 L 87.5 16.667 L 87.5 66.667 Z " fill="rgb(91,91,91)"/></g><g><path d=" M 19.771 19.444 L 48.8 19.444 C 50.251 19.444 51.429 20.876 51.429 22.638 L 51.429 22.638 C 51.429 24.401 50.251 25.832 48.8 25.832 L 19.771 25.832 C 18.32 25.832 17.143 24.401 17.143 22.638 L 17.143 22.638 C 17.143 20.876 18.32 19.444 19.771 19.444 Z " fill="rgb(196,0,48)"/><path d=" M 19.771 54.723 L 48.8 54.723 C 50.251 54.723 51.429 56.154 51.429 57.917 L 51.429 57.917 C 51.429 59.68 50.251 61.111 48.8 61.111 L 19.771 61.111 C 18.32 61.111 17.143 59.68 17.143 57.917 L 17.143 57.917 C 17.143 56.154 18.32 54.723 19.771 54.723 Z " fill="rgb(196,0,48)"/><path d=" M 19.771 37.084 L 48.8 37.084 C 50.251 37.084 51.429 38.515 51.429 40.278 L 51.429 40.278 C 51.429 42.041 50.251 43.472 48.8 43.472 L 19.771 43.472 C 18.32 43.472 17.143 42.041 17.143 40.278 L 17.143 40.278 C 17.143 38.515 18.32 37.084 19.771 37.084 Z " fill="rgb(196,0,48)"/><path d=" M 19.771 46.209 L 34.964 46.209 C 36.414 46.209 37.592 47.64 37.592 49.403 L 37.592 49.403 C 37.592 51.166 36.414 52.597 34.964 52.597 L 19.771 52.597 C 18.32 52.597 17.143 51.166 17.143 49.403 L 17.143 49.403 C 17.143 47.64 18.32 46.209 19.771 46.209 Z " fill="rgb(209,209,209)"/><path d=" M 19.771 28.264 L 34.964 28.264 C 36.414 28.264 37.592 29.695 37.592 31.458 L 37.592 31.458 C 37.592 33.221 36.414 34.652 34.964 34.652 L 19.771 34.652 C 18.32 34.652 17.143 33.221 17.143 31.458 L 17.143 31.458 C 17.143 29.695 18.32 28.264 19.771 28.264 Z " fill="rgb(209,209,209)"/></g></svg>