<?xml version="1.0" standalone="no"?><!-- Generator: Gravit.io --><svg xmlns="http://www.w3.org/2000/svg" xmlns:xlink="http://www.w3.org/1999/xlink" style="isolation:isolate" viewBox="0 0 283.465 283.465" width="283.465" height="283.465"><g style="isolation:isolate"><path d="M 36.37 15.399 L 196.428 15.399 C 205.794 15.399 213.399 23.004 213.399 32.37 L 213.399 37.164 C 213.399 46.531 205.794 54.135 196.428 54.135 L 36.37 54.135 C 27.004 54.135 19.399 46.531 19.399 37.164 L 19.399 32.37 C 19.399 23.004 27.004 15.399 36.37 15.399 Z" style="stroke:none;fill:#FFFFFF;stroke-miterlimit:10;"/><path d="M 36.37 229.329 L 196.428 229.329 C 205.794 229.329 213.399 236.934 213.399 246.301 L 213.399 251.094 C 213.399 260.461 205.794 268.066 196.428 268.066 L 36.37 268.066 C 27.004 268.066 19.399 260.461 19.399 251.094 L 19.399 246.301 C 19.399 236.934 27.004 229.329 36.37 229.329 Z" style="stroke:none;fill:#FFFFFF;stroke-miterlimit:10;"/><path d="M 36.37 122.364 L 196.428 122.364 C 205.794 122.364 213.399 129.969 213.399 139.335 L 213.399 144.129 C 213.399 153.496 205.794 161.1 196.428 161.1 L 36.37 161.1 C 27.004 161.1 19.399 153.496 19.399 144.129 L 19.399 139.335 C 19.399 129.969 27.004 122.364 36.37 122.364 Z" style="stroke:none;fill:#FFFFFF;stroke-miterlimit:10;"/><path d="M 36.37 177.702 L 118.134 177.702 C 127.501 177.702 135.106 185.306 135.106 194.673 L 135.106 199.467 C 135.106 208.833 127.501 216.438 118.134 216.438 L 36.37 216.438 C 27.004 216.438 19.399 208.833 19.399 199.467 L 19.399 194.673 C 19.399 185.306 27.004 177.702 36.37 177.702 Z" style="stroke:none;fill:#FFFFFF;stroke-miterlimit:10;"/><path d="M 36.37 68.882 L 118.134 68.882 C 127.501 68.882 135.106 76.486 135.106 85.853 L 135.106 90.647 C 135.106 100.013 127.501 107.618 118.134 107.618 L 36.37 107.618 C 27.004 107.618 19.399 100.013 19.399 90.647 L 19.399 85.853 C 19.399 76.486 27.004 68.882 36.37 68.882 Z" style="stroke:none;fill:#FFFFFF;stroke-miterlimit:10;"/></g></svg>